/* XPM */
static char *_3f877d6367b490999f5ff88b3d2477dTUUDui9zyBT5wBLi[] = {
/* columns rows colors chars-per-pixel */
"100 55 17 1 ",
"  c None",
". c #0B0C0A",
"X c #321E0F",
"o c #191627",
"O c #69001A",
"+ c #61330B",
"@ c #74471A",
"# c #595657",
"$ c #9C0000",
"% c #805125",
"& c #A66720",
"* c #E5AF19",
"= c #CB885E",
"- c #2B488D",
"; c #7E808F",
": c #EFCEA4",
"> c #B3B8D4",
/* pixels */
"                                                                                                    ",
"                                                                                                    ",
"                                                                                                    ",
"                                                                                                    ",
"                                                                                                    ",
"                                                                                                    ",
"                                                                                                    ",
"                                                                                                    ",
"                                                                                                    ",
"                                                                                                    ",
"                                                                                                    ",
"                                                                                                    ",
"                                                                                                    ",
"                                                                                                    ",
"                                                XXXXX                                               ",
"                                               XoXXXXX                                              ",
"                                               XXo:XXX                                              ",
"                                               XX:::XX                                              ",
"                                               =X%&:&X                                              ",
"                                               =:::=:                                               ",
"                                             >> =:==:; ;;;                                          ",
"                                            >>>>$=::$O;XX;;                                         ",
"                                           ;>>>>$$$$$O$;X>;                                         ",
"                                           ;;>>;OOOOO$$;X>-                                         ",
"                                          ;o;;;$$$$$$$$oo>--                                        ",
"                                          >;oooO$$$$$OOoo>--                                        ",
"                                         $$>>>oXOOOOO-ooo>--                                        ",
"                                        $$$ooooXX-----ooo;--                                        ",
"                                       $$$$ooo--XX---- +o;-$                                        ",
"                                    $$$$$$oooo---XX--   +;$$                                        ",
"                                    $$$$OOooo ----XX-   @;;$                                        ",
"                                     OOOOoooo -----X-   @@;$                                        ",
"                                       @@ooo  X----;X    @;$                                        ",
"                                       +@@@   -XXX;XX     >$                                        ",
"                                       +++   ----oo;.     >>                                        ",
"                                     @@**    ----ooo.      >                                        ",
"                                 ** @++@     ---oooo.                                               ",
"                                  **X@@     ----oooo.                                               ",
"                                 ;;**       ---ooooo#                                               ",
"                                >>;;**     @@@ooooo;;                                               ",
"                              >>>>   *   +X@@@@oooo;>                                               ",
"                            >>>>       +++X@@@@ooo;>>                                               ",
"                          >>>>>       +++++X@@@ooo;>                                                ",
"                        >>>>>         +++++X@@@....                                                 ",
"                      >>>>>            +@@     +++.                                                 ",
"                    >>>>>              ++@@    ++++                                                 ",
"                  >>>>                  +++    ..+++                                                ",
"                                               XX.++                                                ",
"                                              XXXX                                                  ",
"                                              XXX                                                   ",
"                                             XX++                                                   ",
"                                             X+XXX                                                  ",
"                                              XXXXX                                                 ",
"                                                                                                    ",
"                                                                                                    "
};
